<?xml version="1.0" encoding="UTF-8" ?>
<svg version="1.1" width="32" height="32" xmlns="http://www.w3.org/2000/svg" shape-rendering="crispEdges">
<rect x="12" y="8" width="1" height="1" fill="#2A2C2C" />
<rect x="13" y="8" width="1" height="1" fill="#2A2C2C" />
<rect x="14" y="8" width="1" height="1" fill="#2A2C2C" />
<rect x="15" y="8" width="1" height="1" fill="#373E3E" />
<rect x="16" y="8" width="1" height="1" fill="#485454" />
<rect x="17" y="8" width="1" height="1" fill="#697B7B" />
<rect x="18" y="8" width="1" height="1" fill="#697B7B" />
<rect x="19" y="8" width="1" height="1" fill="#697B7B" />
<rect x="11" y="9" width="1" height="1" fill="#2A2C2C" />
<rect x="12" y="9" width="1" height="1" fill="#2A2C2C" />
<rect x="13" y="9" width="1" height="1" fill="#373E3E" />
<rect x="14" y="9" width="1" height="1" fill="#373E3E" />
<rect x="15" y="9" width="1" height="1" fill="#485454" />
<rect x="16" y="9" width="1" height="1" fill="#485454" />
<rect x="17" y="9" width="1" height="1" fill="#485454" />
<rect x="18" y="9" width="1" height="1" fill="#485454" />
<rect x="19" y="9" width="1" height="1" fill="#F6F5EF" />
<rect x="20" y="9" width="1" height="1" fill="#697B7B" />
<rect x="10" y="10" width="1" height="1" fill="#2A2C2C" />
<rect x="11" y="10" width="1" height="1" fill="#2A2C2C" />
<rect x="12" y="10" width="1" height="1" fill="#373E3E" />
<rect x="13" y="10" width="1" height="1" fill="#485454" />
<rect x="14" y="10" width="1" height="1" fill="#485454" />
<rect x="15" y="10" width="1" height="1" fill="#373E3E" />
<rect x="16" y="10" width="1" height="1" fill="#485454" />
<rect x="17" y="10" width="1" height="1" fill="#485454" />
<rect x="18" y="10" width="1" height="1" fill="#485454" />
<rect x="19" y="10" width="1" height="1" fill="#485454" />
<rect x="20" y="10" width="1" height="1" fill="#697B7B" />
<rect x="21" y="10" width="1" height="1" fill="#697B7B" />
<rect x="9" y="11" width="1" height="1" fill="#2A2C2C" />
<rect x="10" y="11" width="1" height="1" fill="#2A2C2C" />
<rect x="11" y="11" width="1" height="1" fill="#373E3E" />
<rect x="12" y="11" width="1" height="1" fill="#373E3E" />
<rect x="13" y="11" width="1" height="1" fill="#373E3E" />
<rect x="14" y="11" width="1" height="1" fill="#373E3E" />
<rect x="15" y="11" width="1" height="1" fill="#485454" />
<rect x="16" y="11" width="1" height="1" fill="#485454" />
<rect x="17" y="11" width="1" height="1" fill="#485454" />
<rect x="18" y="11" width="1" height="1" fill="#485454" />
<rect x="19" y="11" width="1" height="1" fill="#485454" />
<rect x="20" y="11" width="1" height="1" fill="#485454" />
<rect x="21" y="11" width="1" height="1" fill="#485454" />
<rect x="22" y="11" width="1" height="1" fill="#485454" />
<rect x="9" y="12" width="1" height="1" fill="#2A2C2C" />
<rect x="10" y="12" width="1" height="1" fill="#2A2C2C" />
<rect x="11" y="12" width="1" height="1" fill="#373E3E" />
<rect x="12" y="12" width="1" height="1" fill="#373E3E" />
<rect x="13" y="12" width="1" height="1" fill="#373E3E" />
<rect x="14" y="12" width="1" height="1" fill="#373E3E" />
<rect x="15" y="12" width="1" height="1" fill="#485454" />
<rect x="16" y="12" width="1" height="1" fill="#485454" />
<rect x="17" y="12" width="1" height="1" fill="#485454" />
<rect x="18" y="12" width="1" height="1" fill="#485454" />
<rect x="19" y="12" width="1" height="1" fill="#485454" />
<rect x="20" y="12" width="1" height="1" fill="#485454" />
<rect x="21" y="12" width="1" height="1" fill="#485454" />
<rect x="22" y="12" width="1" height="1" fill="#485454" />
<rect x="3" y="13" width="1" height="1" fill="#EDE6C8" />
<rect x="4" y="13" width="1" height="1" fill="#EDE6C8" />
<rect x="8" y="13" width="1" height="1" fill="#2A2C2C" />
<rect x="9" y="13" width="1" height="1" fill="#2A2C2C" />
<rect x="10" y="13" width="1" height="1" fill="#2A2C2C" />
<rect x="11" y="13" width="1" height="1" fill="#373E3E" />
<rect x="12" y="13" width="1" height="1" fill="#373E3E" />
<rect x="13" y="13" width="1" height="1" fill="#485454" />
<rect x="14" y="13" width="1" height="1" fill="#485454" />
<rect x="15" y="13" width="1" height="1" fill="#373E3E" />
<rect x="16" y="13" width="1" height="1" fill="#485454" />
<rect x="17" y="13" width="1" height="1" fill="#485454" />
<rect x="18" y="13" width="1" height="1" fill="#485454" />
<rect x="19" y="13" width="1" height="1" fill="#485454" />
<rect x="20" y="13" width="1" height="1" fill="#485454" />
<rect x="21" y="13" width="1" height="1" fill="#485454" />
<rect x="22" y="13" width="1" height="1" fill="#485454" />
<rect x="23" y="13" width="1" height="1" fill="#485454" />
<rect x="27" y="13" width="1" height="1" fill="#EDE6C8" />
<rect x="28" y="13" width="1" height="1" fill="#EDE6C8" />
<rect x="3" y="14" width="1" height="1" fill="#9A9581" />
<rect x="4" y="14" width="1" height="1" fill="#EDE6C8" />
<rect x="5" y="14" width="1" height="1" fill="#FBEEB9" />
<rect x="6" y="14" width="1" height="1" fill="#FBEEB9" />
<rect x="7" y="14" width="1" height="1" fill="#FBEEB9" />
<rect x="8" y="14" width="1" height="1" fill="#2A2C2C" />
<rect x="9" y="14" width="1" height="1" fill="#373E3E" />
<rect x="10" y="14" width="1" height="1" fill="#373E3E" />
<rect x="11" y="14" width="1" height="1" fill="#373E3E" />
<rect x="12" y="14" width="1" height="1" fill="#373E3E" />
<rect x="13" y="14" width="1" height="1" fill="#2A2C2C" />
<rect x="14" y="14" width="1" height="1" fill="#2A2C2C" />
<rect x="15" y="14" width="1" height="1" fill="#485454" />
<rect x="16" y="14" width="1" height="1" fill="#485454" />
<rect x="17" y="14" width="1" height="1" fill="#485454" />
<rect x="18" y="14" width="1" height="1" fill="#485454" />
<rect x="19" y="14" width="1" height="1" fill="#485454" />
<rect x="20" y="14" width="1" height="1" fill="#485454" />
<rect x="21" y="14" width="1" height="1" fill="#485454" />
<rect x="22" y="14" width="1" height="1" fill="#485454" />
<rect x="23" y="14" width="1" height="1" fill="#485454" />
<rect x="24" y="14" width="1" height="1" fill="#FBEEB9" />
<rect x="25" y="14" width="1" height="1" fill="#FBEEB9" />
<rect x="26" y="14" width="1" height="1" fill="#FBEEB9" />
<rect x="27" y="14" width="1" height="1" fill="#EDE6C8" />
<rect x="28" y="14" width="1" height="1" fill="#9A9581" />
<rect x="4" y="15" width="1" height="1" fill="#9A9581" />
<rect x="5" y="15" width="1" height="1" fill="#EDE6C8" />
<rect x="6" y="15" width="1" height="1" fill="#EDE6C8" />
<rect x="7" y="15" width="1" height="1" fill="#EDE6C8" />
<rect x="8" y="15" width="1" height="1" fill="#2A2C2C" />
<rect x="9" y="15" width="1" height="1" fill="#1D301D" />
<rect x="10" y="15" width="1" height="1" fill="#1D301D" />
<rect x="11" y="15" width="1" height="1" fill="#1D301D" />
<rect x="12" y="15" width="1" height="1" fill="#1D301D" />
<rect x="13" y="15" width="1" height="1" fill="#1D301D" />
<rect x="14" y="15" width="1" height="1" fill="#1D301D" />
<rect x="15" y="15" width="1" height="1" fill="#2A2C2C" />
<rect x="16" y="15" width="1" height="1" fill="#1D301D" />
<rect x="17" y="15" width="1" height="1" fill="#1D301D" />
<rect x="18" y="15" width="1" height="1" fill="#1D301D" />
<rect x="19" y="15" width="1" height="1" fill="#1D301D" />
<rect x="20" y="15" width="1" height="1" fill="#1D301D" />
<rect x="21" y="15" width="1" height="1" fill="#1D301D" />
<rect x="22" y="15" width="1" height="1" fill="#1D301D" />
<rect x="23" y="15" width="1" height="1" fill="#485454" />
<rect x="24" y="15" width="1" height="1" fill="#EDE6C8" />
<rect x="25" y="15" width="1" height="1" fill="#EDE6C8" />
<rect x="26" y="15" width="1" height="1" fill="#EDE6C8" />
<rect x="27" y="15" width="1" height="1" fill="#9A9581" />
<rect x="5" y="16" width="1" height="1" fill="#9A9581" />
<rect x="6" y="16" width="1" height="1" fill="#9A9581" />
<rect x="7" y="16" width="1" height="1" fill="#9A9581" />
<rect x="8" y="16" width="1" height="1" fill="#2A2C2C" />
<rect x="9" y="16" width="1" height="1" fill="#1D301D" />
<rect x="10" y="16" width="1" height="1" fill="#1D301D" />
<rect x="11" y="16" width="1" height="1" fill="#1D301D" />
<rect x="12" y="16" width="1" height="1" fill="#1D301D" />
<rect x="13" y="16" width="1" height="1" fill="#1D301D" />
<rect x="14" y="16" width="1" height="1" fill="#1D301D" />
<rect x="15" y="16" width="1" height="1" fill="#1D301D" />
<rect x="16" y="16" width="1" height="1" fill="#1D301D" />
<rect x="17" y="16" width="1" height="1" fill="#1D301D" />
<rect x="18" y="16" width="1" height="1" fill="#1D301D" />
<rect x="19" y="16" width="1" height="1" fill="#1D301D" />
<rect x="20" y="16" width="1" height="1" fill="#1D301D" />
<rect x="21" y="16" width="1" height="1" fill="#3F803F" />
<rect x="22" y="16" width="1" height="1" fill="#1D301D" />
<rect x="23" y="16" width="1" height="1" fill="#485454" />
<rect x="24" y="16" width="1" height="1" fill="#9A9581" />
<rect x="25" y="16" width="1" height="1" fill="#9A9581" />
<rect x="26" y="16" width="1" height="1" fill="#9A9581" />
<rect x="5" y="17" width="1" height="1" fill="#9A9581" />
<rect x="6" y="17" width="1" height="1" fill="#9A9581" />
<rect x="7" y="17" width="1" height="1" fill="#9A9581" />
<rect x="8" y="17" width="1" height="1" fill="#2A2C2C" />
<rect x="9" y="17" width="1" height="1" fill="#1D301D" />
<rect x="10" y="17" width="1" height="1" fill="#1D301D" />
<rect x="11" y="17" width="1" height="1" fill="#3D723D" />
<rect x="12" y="17" width="1" height="1" fill="#A3A3A3" />
<rect x="13" y="17" width="1" height="1" fill="#A3A3A3" />
<rect x="14" y="17" width="1" height="1" fill="#A3A3A3" />
<rect x="15" y="17" width="1" height="1" fill="#1D301D" />
<rect x="16" y="17" width="1" height="1" fill="#1D301D" />
<rect x="17" y="17" width="1" height="1" fill="#A3A3A3" />
<rect x="18" y="17" width="1" height="1" fill="#A3A3A3" />
<rect x="19" y="17" width="1" height="1" fill="#A3A3A3" />
<rect x="20" y="17" width="1" height="1" fill="#3F803F" />
<rect x="21" y="17" width="1" height="1" fill="#3F803F" />
<rect x="22" y="17" width="1" height="1" fill="#1D301D" />
<rect x="23" y="17" width="1" height="1" fill="#485454" />
<rect x="24" y="17" width="1" height="1" fill="#9A9581" />
<rect x="25" y="17" width="1" height="1" fill="#9A9581" />
<rect x="26" y="17" width="1" height="1" fill="#9A9581" />
<rect x="8" y="18" width="1" height="1" fill="#2A2C2C" />
<rect x="9" y="18" width="1" height="1" fill="#2A422A" />
<rect x="10" y="18" width="1" height="1" fill="#2A422A" />
<rect x="11" y="18" width="1" height="1" fill="#3D723D" />
<rect x="12" y="18" width="1" height="1" fill="#F6F5EF" />
<rect x="13" y="18" width="1" height="1" fill="#E01A1A" />
<rect x="14" y="18" width="1" height="1" fill="#E01A1A" />
<rect x="15" y="18" width="1" height="1" fill="#3F803F" />
<rect x="16" y="18" width="1" height="1" fill="#3F803F" />
<rect x="17" y="18" width="1" height="1" fill="#E01A1A" />
<rect x="18" y="18" width="1" height="1" fill="#E01A1A" />
<rect x="19" y="18" width="1" height="1" fill="#F6F5EF" />
<rect x="20" y="18" width="1" height="1" fill="#3F803F" />
<rect x="21" y="18" width="1" height="1" fill="#3F803F" />
<rect x="22" y="18" width="1" height="1" fill="#3F803F" />
<rect x="23" y="18" width="1" height="1" fill="#2A2C2C" />
<rect x="8" y="19" width="1" height="1" fill="#305430" />
<rect x="9" y="19" width="1" height="1" fill="#3D723D" />
<rect x="10" y="19" width="1" height="1" fill="#3D723D" />
<rect x="11" y="19" width="1" height="1" fill="#3D723D" />
<rect x="12" y="19" width="1" height="1" fill="#3D723D" />
<rect x="13" y="19" width="1" height="1" fill="#3F803F" />
<rect x="14" y="19" width="1" height="1" fill="#3F803F" />
<rect x="15" y="19" width="1" height="1" fill="#2A422A" />
<rect x="16" y="19" width="1" height="1" fill="#2A422A" />
<rect x="17" y="19" width="1" height="1" fill="#3F803F" />
<rect x="18" y="19" width="1" height="1" fill="#3F803F" />
<rect x="19" y="19" width="1" height="1" fill="#3F803F" />
<rect x="20" y="19" width="1" height="1" fill="#3F803F" />
<rect x="21" y="19" width="1" height="1" fill="#3F803F" />
<rect x="22" y="19" width="1" height="1" fill="#3F803F" />
<rect x="23" y="19" width="1" height="1" fill="#7EC67E" />
<rect x="8" y="20" width="1" height="1" fill="#2A422A" />
<rect x="9" y="20" width="1" height="1" fill="#305430" />
<rect x="10" y="20" width="1" height="1" fill="#305430" />
<rect x="11" y="20" width="1" height="1" fill="#3D723D" />
<rect x="12" y="20" width="1" height="1" fill="#3D723D" />
<rect x="13" y="20" width="1" height="1" fill="#3D723D" />
<rect x="14" y="20" width="1" height="1" fill="#3D723D" />
<rect x="15" y="20" width="1" height="1" fill="#3D723D" />
<rect x="16" y="20" width="1" height="1" fill="#3F803F" />
<rect x="17" y="20" width="1" height="1" fill="#3F803F" />
<rect x="18" y="20" width="1" height="1" fill="#3F803F" />
<rect x="19" y="20" width="1" height="1" fill="#3F803F" />
<rect x="20" y="20" width="1" height="1" fill="#3F803F" />
<rect x="21" y="20" width="1" height="1" fill="#3F803F" />
<rect x="22" y="20" width="1" height="1" fill="#3D723D" />
<rect x="23" y="20" width="1" height="1" fill="#7EC67E" />
<rect x="8" y="21" width="1" height="1" fill="#2A422A" />
<rect x="9" y="21" width="1" height="1" fill="#3D723D" />
<rect x="10" y="21" width="1" height="1" fill="#3D723D" />
<rect x="11" y="21" width="1" height="1" fill="#305430" />
<rect x="12" y="21" width="1" height="1" fill="#EDE6C8" />
<rect x="13" y="21" width="1" height="1" fill="#3D723D" />
<rect x="14" y="21" width="1" height="1" fill="#3D723D" />
<rect x="15" y="21" width="1" height="1" fill="#3D723D" />
<rect x="16" y="21" width="1" height="1" fill="#3F803F" />
<rect x="17" y="21" width="1" height="1" fill="#3F803F" />
<rect x="18" y="21" width="1" height="1" fill="#3F803F" />
<rect x="19" y="21" width="1" height="1" fill="#EDE6C8" />
<rect x="20" y="21" width="1" height="1" fill="#3D723D" />
<rect x="21" y="21" width="1" height="1" fill="#3D723D" />
<rect x="22" y="21" width="1" height="1" fill="#3F803F" />
<rect x="23" y="21" width="1" height="1" fill="#3F803F" />
<rect x="8" y="22" width="1" height="1" fill="#2A422A" />
<rect x="9" y="22" width="1" height="1" fill="#3D723D" />
<rect x="10" y="22" width="1" height="1" fill="#3D723D" />
<rect x="11" y="22" width="1" height="1" fill="#305430" />
<rect x="12" y="22" width="1" height="1" fill="#EDE6C8" />
<rect x="13" y="22" width="1" height="1" fill="#3D723D" />
<rect x="14" y="22" width="1" height="1" fill="#3D723D" />
<rect x="15" y="22" width="1" height="1" fill="#3D723D" />
<rect x="16" y="22" width="1" height="1" fill="#3F803F" />
<rect x="17" y="22" width="1" height="1" fill="#3F803F" />
<rect x="18" y="22" width="1" height="1" fill="#3F803F" />
<rect x="19" y="22" width="1" height="1" fill="#EDE6C8" />
<rect x="20" y="22" width="1" height="1" fill="#3D723D" />
<rect x="21" y="22" width="1" height="1" fill="#3D723D" />
<rect x="22" y="22" width="1" height="1" fill="#3F803F" />
<rect x="23" y="22" width="1" height="1" fill="#3F803F" />
<rect x="8" y="23" width="1" height="1" fill="#2A422A" />
<rect x="9" y="23" width="1" height="1" fill="#3D723D" />
<rect x="10" y="23" width="1" height="1" fill="#3D723D" />
<rect x="11" y="23" width="1" height="1" fill="#9A9581" />
<rect x="12" y="23" width="1" height="1" fill="#EDE6C8" />
<rect x="13" y="23" width="1" height="1" fill="#3D723D" />
<rect x="14" y="23" width="1" height="1" fill="#3D723D" />
<rect x="15" y="23" width="1" height="1" fill="#3D723D" />
<rect x="16" y="23" width="1" height="1" fill="#3F803F" />
<rect x="17" y="23" width="1" height="1" fill="#3F803F" />
<rect x="18" y="23" width="1" height="1" fill="#3F803F" />
<rect x="19" y="23" width="1" height="1" fill="#9A9581" />
<rect x="20" y="23" width="1" height="1" fill="#EDE6C8" />
<rect x="21" y="23" width="1" height="1" fill="#EDE6C8" />
<rect x="22" y="23" width="1" height="1" fill="#3F803F" />
<rect x="23" y="23" width="1" height="1" fill="#3F803F" />
<rect x="8" y="24" width="1" height="1" fill="#1D301D" />
<rect x="9" y="24" width="1" height="1" fill="#1D301D" />
<rect x="10" y="24" width="1" height="1" fill="#1D301D" />
<rect x="11" y="24" width="1" height="1" fill="#305430" />
<rect x="12" y="24" width="1" height="1" fill="#65A365" />
<rect x="13" y="24" width="1" height="1" fill="#65A365" />
<rect x="14" y="24" width="1" height="1" fill="#65A365" />
<rect x="15" y="24" width="1" height="1" fill="#65A365" />
<rect x="16" y="24" width="1" height="1" fill="#65A365" />
<rect x="17" y="24" width="1" height="1" fill="#65A365" />
<rect x="18" y="24" width="1" height="1" fill="#65A365" />
<rect x="19" y="24" width="1" height="1" fill="#65A365" />
<rect x="20" y="24" width="1" height="1" fill="#65A365" />
<rect x="21" y="24" width="1" height="1" fill="#65A365" />
<rect x="22" y="24" width="1" height="1" fill="#509450" />
<rect x="23" y="24" width="1" height="1" fill="#509450" />
<rect x="8" y="25" width="1" height="1" fill="#1D301D" />
<rect x="9" y="25" width="1" height="1" fill="#305430" />
<rect x="10" y="25" width="1" height="1" fill="#305430" />
<rect x="11" y="25" width="1" height="1" fill="#305430" />
<rect x="12" y="25" width="1" height="1" fill="#509450" />
<rect x="13" y="25" width="1" height="1" fill="#305430" />
<rect x="14" y="25" width="1" height="1" fill="#305430" />
<rect x="15" y="25" width="1" height="1" fill="#305430" />
<rect x="16" y="25" width="1" height="1" fill="#305430" />
<rect x="17" y="25" width="1" height="1" fill="#305430" />
<rect x="18" y="25" width="1" height="1" fill="#305430" />
<rect x="19" y="25" width="1" height="1" fill="#509450" />
<rect x="20" y="25" width="1" height="1" fill="#509450" />
<rect x="21" y="25" width="1" height="1" fill="#509450" />
<rect x="22" y="25" width="1" height="1" fill="#509450" />
<rect x="23" y="25" width="1" height="1" fill="#509450" />
<rect x="9" y="26" width="1" height="1" fill="#1D301D" />
<rect x="10" y="26" width="1" height="1" fill="#1D301D" />
<rect x="11" y="26" width="1" height="1" fill="#305430" />
<rect x="12" y="26" width="1" height="1" fill="#305430" />
<rect x="13" y="26" width="1" height="1" fill="#509450" />
<rect x="14" y="26" width="1" height="1" fill="#509450" />
<rect x="15" y="26" width="1" height="1" fill="#509450" />
<rect x="16" y="26" width="1" height="1" fill="#509450" />
<rect x="17" y="26" width="1" height="1" fill="#509450" />
<rect x="18" y="26" width="1" height="1" fill="#509450" />
<rect x="19" y="26" width="1" height="1" fill="#509450" />
<rect x="20" y="26" width="1" height="1" fill="#509450" />
<rect x="21" y="26" width="1" height="1" fill="#509450" />
<rect x="22" y="26" width="1" height="1" fill="#509450" />
<rect x="9" y="27" width="1" height="1" fill="#1D301D" />
<rect x="10" y="27" width="1" height="1" fill="#1D301D" />
<rect x="11" y="27" width="1" height="1" fill="#305430" />
<rect x="12" y="27" width="1" height="1" fill="#305430" />
<rect x="13" y="27" width="1" height="1" fill="#509450" />
<rect x="14" y="27" width="1" height="1" fill="#509450" />
<rect x="15" y="27" width="1" height="1" fill="#509450" />
<rect x="16" y="27" width="1" height="1" fill="#509450" />
<rect x="17" y="27" width="1" height="1" fill="#509450" />
<rect x="18" y="27" width="1" height="1" fill="#509450" />
<rect x="19" y="27" width="1" height="1" fill="#509450" />
<rect x="20" y="27" width="1" height="1" fill="#509450" />
<rect x="21" y="27" width="1" height="1" fill="#509450" />
<rect x="22" y="27" width="1" height="1" fill="#509450" />
<rect x="11" y="28" width="1" height="1" fill="#1D301D" />
<rect x="12" y="28" width="1" height="1" fill="#305430" />
<rect x="13" y="28" width="1" height="1" fill="#305430" />
<rect x="14" y="28" width="1" height="1" fill="#305430" />
<rect x="15" y="28" width="1" height="1" fill="#305430" />
<rect x="16" y="28" width="1" height="1" fill="#509450" />
<rect x="17" y="28" width="1" height="1" fill="#509450" />
<rect x="18" y="28" width="1" height="1" fill="#509450" />
<rect x="19" y="28" width="1" height="1" fill="#509450" />
<rect x="20" y="28" width="1" height="1" fill="#509450" />
<rect x="21" y="28" width="1" height="1" fill="#509450" />
<rect x="13" y="29" width="1" height="1" fill="#1D301D" />
<rect x="14" y="29" width="1" height="1" fill="#1D301D" />
<rect x="15" y="29" width="1" height="1" fill="#1D301D" />
<rect x="16" y="29" width="1" height="1" fill="#1D301D" />
<rect x="17" y="29" width="1" height="1" fill="#509450" />
<rect x="18" y="29" width="1" height="1" fill="#509450" />
</svg>